# Blender 4.3.2
# www.blender.org
mtllib corner.mtl
o Plane
v -0.500000 0.000000 0.500000 0.0000 0.0000 0.0000
v 0.500000 0.000000 0.500000 1.0000 1.0000 1.0000
v -0.500000 0.000000 -0.500000 0.0000 0.0000 0.0000
v 0.500000 0.000000 -0.500000 0.0000 0.0000 0.0000
v -0.500000 3.000000 0.500000 0.3019 0.3019 0.3019
v -0.500000 3.000000 -0.500000 0.0000 0.0000 0.0000
v 0.500000 3.000000 0.500000 1.0000 1.0000 1.0000
v 0.500000 3.000000 -0.500000 0.0000 0.0000 0.0000
v -0.500000 2.593933 0.500000 1.0000 1.0000 1.0000
v -0.500000 0.406067 0.500000 1.0000 1.0000 1.0000
v -0.500000 0.406067 -0.500000 0.0000 0.0000 0.0000
v -0.500000 2.593933 -0.500000 0.0000 0.0000 0.0000
v 0.000000 0.000000 0.500000 1.0000 1.0000 1.0000
v 0.000000 0.000000 -0.500000 0.0000 0.0000 0.0000
v 0.000000 3.000000 0.500000 1.0000 1.0000 1.0000
v 0.000000 3.000000 -0.500000 0.0000 0.0000 0.0000
v 0.000000 0.000000 -0.500000 0.0000 0.0000 0.0000
v 0.000000 3.000000 -0.500000 0.0000 0.0000 0.0000
v 0.000000 0.406067 -0.500000 1.0000 1.0000 1.0000
v 0.000000 2.593933 -0.500000 1.0000 1.0000 1.0000
v 0.500000 0.000000 -0.500000 0.0000 0.0000 0.0000
v 0.500000 3.000000 -0.500000 0.0000 0.0000 0.0000
v 0.500000 0.406067 -0.500000 1.0000 1.0000 1.0000
v 0.500000 2.593933 -0.500000 1.0000 1.0000 1.0000
v -0.500000 0.000000 0.000000 0.0000 0.0000 0.0000
v 0.500000 0.000000 0.000000 1.0000 1.0000 1.0000
v -0.500000 3.000000 0.000000 0.3019 0.3019 0.3019
v 0.500000 3.000000 0.000000 1.0000 1.0000 1.0000
v -0.500000 0.406067 0.000000 1.0000 1.0000 1.0000
v -0.500000 2.593933 0.000000 1.0000 1.0000 1.0000
v 0.000000 0.000000 0.000000 1.0000 1.0000 1.0000
v 0.000000 3.000000 0.000000 1.0000 1.0000 1.0000
vn -0.0000 1.0000 -0.0000
vn 1.0000 -0.0000 -0.0000
vn -0.0000 -1.0000 -0.0000
vn -0.0000 -0.0000 1.0000
vt 0.500000 0.500000
vt 0.500000 0.000000
vt 1.000000 0.000000
vt 1.000000 0.500000
vt 0.500000 2.593933
vt 1.000000 2.593933
vt 1.000000 3.000000
vt 0.500000 3.000000
vt 0.500000 3.500000
vt 1.000000 3.500000
vt 1.000000 4.000000
vt 0.500000 4.000000
vt 0.500000 0.000000
vt 1.000000 0.406067
vt 0.500000 0.406067
vt 1.000000 0.406067
vt 0.500000 1.000000
vt 1.000000 1.000000
vt 0.000082 2.593930
vt 0.000082 0.406067
vt 0.500000 0.406067
vt 0.500000 2.593930
vt 0.000082 0.000082
vt 0.500000 0.000082
vt 0.000082 3.000000
vt 0.500000 3.000000
vt 1.000000 0.406067
vt 1.000000 2.593930
vt 1.000000 0.000082
vt 0.000000 3.000000
vt -0.000000 3.500000
vt 0.000000 1.000000
vt -0.000000 0.500000
vt 0.000000 0.406067
vt 0.000000 2.593930
vt 0.000000 0.000000
vt -0.000000 4.000000
vt 0.000000 2.593933
vt -0.000000 0.000000
s 0
usemtl Floor
f 31/1/1 26/2/1 4/3/1 14/4/1
f 25/17/1 31/1/1 14/4/1 3/18/1
f 1/32/1 13/33/1 31/1/1 25/17/1
f 13/33/1 2/39/1 26/2/1 31/1/1
usemtl Wall
f 30/5/2 12/6/2 6/7/2 27/8/2
f 32/9/3 16/10/3 8/11/3 28/12/3
f 25/13/2 3/3/2 11/14/2 29/15/2
f 29/15/2 11/16/2 12/6/2 30/5/2
f 27/8/3 6/7/3 16/10/3 32/9/3
f 12/19/4 11/20/4 19/21/4 20/22/4
f 11/20/4 3/23/4 17/24/4 19/21/4
f 6/25/4 12/19/4 20/22/4 18/26/4
f 20/22/4 19/21/4 23/27/4 24/28/4
f 19/21/4 17/24/4 21/29/4 23/27/4
f 18/26/4 20/22/4 24/28/4 22/7/4
f 5/30/3 27/8/3 32/9/3 15/31/3
f 10/34/2 29/15/2 30/22/2 9/35/2
f 1/36/2 25/13/2 29/15/2 10/34/2
f 15/31/3 32/9/3 28/12/3 7/37/3
f 9/38/2 30/5/2 27/8/2 5/30/2
