# Blender 4.3.2
# www.blender.org
mtllib untitled.mtl
o Plane
v -0.500000 0.000000 0.500000 0.3019 0.3019 0.3019
v 0.500000 0.000000 0.500000 1.0000 1.0000 1.0000
v -0.500000 0.000000 -0.500000 0.3019 0.3019 0.3019
v 0.500000 0.000000 -0.500000 1.0000 1.0000 1.0000
v -0.500000 3.000000 0.500000 0.3019 0.3019 0.3019
v -0.500000 3.000000 -0.500000 0.3019 0.3019 0.3019
v 0.500000 3.000000 0.500000 1.0000 1.0000 1.0000
v 0.500000 3.000000 -0.500000 1.0000 1.0000 1.0000
v -0.500000 2.593933 0.500000 1.0000 1.0000 1.0000
v -0.500000 0.406067 0.500000 1.0000 1.0000 1.0000
v -0.500000 0.406067 -0.500000 1.0000 1.0000 1.0000
v -0.500000 2.593933 -0.500000 1.0000 1.0000 1.0000
v 0.000000 0.000000 0.500000 1.0000 1.0000 1.0000
v 0.000000 0.000000 -0.500000 1.0000 1.0000 1.0000
v 0.000000 3.000000 0.500000 1.0000 1.0000 1.0000
v 0.000000 3.000000 -0.500000 1.0000 1.0000 1.0000
vn -0.0000 1.0000 -0.0000
vn 1.0000 -0.0000 -0.0000
vn -0.0000 -1.0000 -0.0000
vt -0.000000 0.500000
vt -0.000000 0.000000
vt 1.000000 0.000000
vt 1.000000 0.500000
vt 0.000000 2.593933
vt 1.000000 2.593933
vt 1.000000 3.000000
vt 0.000000 3.000000
vt -0.000000 3.500000
vt 1.000000 3.500000
vt 1.000000 4.000000
vt -0.000000 4.000000
vt 0.000000 0.000000
vt 1.000000 0.406067
vt 0.000000 0.406067
vt 0.000000 1.000000
vt 1.000000 1.000000
s 0
usemtl Floor
f 13/1/1 2/2/1 4/3/1 14/4/1
f 1/16/1 13/1/1 14/4/1 3/17/1
usemtl Wall
f 9/5/2 12/6/2 6/7/2 5/8/2
f 15/9/3 16/10/3 8/11/3 7/12/3
f 1/13/2 3/3/2 11/14/2 10/15/2
f 10/15/2 11/14/2 12/6/2 9/5/2
f 5/8/3 6/7/3 16/10/3 15/9/3
